HIERARCHY
ROOT HipCenter
{
    OFFSET 0.0 0.0 -0.0
    CHANNELS 6 Xposition Yposition Zposition Zrotation Xrotation Yrotation
    JOINT Spine
    {
        OFFSET 0.0 0.12093144655227661 0.0
        CHANNELS 3 Zrotation Xrotation Yrotation
        JOINT ShoulderCenter
        {
            OFFSET 0.0 0.3336043059825897 0.0
            CHANNELS 3 Zrotation Xrotation Yrotation
            JOINT LeftShoulder
            {
                OFFSET 0.1905135214328766 0.0 0.0
                CHANNELS 3 Zrotation Xrotation Yrotation
                JOINT LeftElbow
                {
                    OFFSET 0.2974621057510376 0.0 0.0
                    CHANNELS 3 Zrotation Xrotation Yrotation
                    JOINT LeftWrist
                    {
                        OFFSET 0.29610544443130493 0.0 0.0
                        CHANNELS 3 Zrotation Xrotation Yrotation
                        JOINT LeftHand
                        {
                            OFFSET 0.04400521516799927 0.0 0.0
                            CHANNELS 3 Zrotation Xrotation Yrotation
                            End Site
                            {
                                OFFSET 0.017602086067199707 0.0 0.0
                            }
                        }
                    }
                }
            }
            JOINT RightShoulder
            {
                OFFSET -0.1905135214328766 0.0 0.0
                CHANNELS 3 Zrotation Xrotation Yrotation
                JOINT RightElbow
                {
                    OFFSET -0.2974621057510376 0.0 0.0
                    CHANNELS 3 Zrotation Xrotation Yrotation
                    JOINT RightWrist
                    {
                        OFFSET -0.29610544443130493 0.0 0.0
                        CHANNELS 3 Zrotation Xrotation Yrotation
                        JOINT RightHand
                        {
                            OFFSET -0.04400521516799927 0.0 0.0
                            CHANNELS 3 Zrotation Xrotation Yrotation
                            End Site
                            {
                                OFFSET -0.017602086067199707 0.0 0.0
                            }
                        }
                    }
                }
            }
            End Site
            {
                OFFSET 0.0 0.1334417164325714 0.0
            }
        }
    }
    JOINT LeftHip
    {
        OFFSET 0.13974279165267944 0.0 0.0
        CHANNELS 3 Zrotation Xrotation Yrotation
        JOINT LeftKnee
        {
            OFFSET 0.0 -0.40650272369384766 0.0
            CHANNELS 3 Zrotation Xrotation Yrotation
            JOINT LeftAnkle
            {
                OFFSET 0.0 -0.447690486907959 0.0
                CHANNELS 3 Zrotation Xrotation Yrotation
                JOINT LeftFoot
                {
                    OFFSET 0.0 -0.10071147978305817 0.0
                    CHANNELS 3 Zrotation Xrotation Yrotation
                    End Site
                    {
                        OFFSET 0.0 0.0 0.040284596383571625
                    }
                }
            }
        }
    }
    JOINT RightHip
    {
        OFFSET -0.13974279165267944 0.0 0.0
        CHANNELS 3 Zrotation Xrotation Yrotation
        JOINT RightKnee
        {
            OFFSET 0.0 -0.40650272369384766 0.0
            CHANNELS 3 Zrotation Xrotation Yrotation
            JOINT RightAnkle
            {
                OFFSET 0.0 -0.447690486907959 0.0
                CHANNELS 3 Zrotation Xrotation Yrotation
                JOINT RightFoot
                {
                    OFFSET 0.0 -0.10071147978305817 0.0
                    CHANNELS 3 Zrotation Xrotation Yrotation
                    End Site
                    {
                        OFFSET 0.0 0.0 0.040284596383571625
                    }
                }
            }
        }
    }
}
MOTION
Frames: 5
Frame Time: 0.03333333333333333
0.7279999852180481 0.15700000524520874 0.5759999752044678 1.42024727348505 -0.9466485166814619 5.083247739951117 -2.1129102192409355 -1.9498837664472588 -0.07984548077969807 -5.1712339219756616e-08 1.6615635671699657e-07 5.289243858345306 95.58360243455978 -12.12341699783817 177.54248844527723 1.979734532847506e-06 -1.0278262630477792e-06 22.140661750182236 -2.5353466147495805e-06 8.291040187380029 14.529833640772797 7.951386703658791e-16 -3.1805546814635164e-15 2.2069531490250793e-32 -93.69493814531774 11.918248886736578 -170.7036742980917 1.8974644372488363e-07 -1.1530583386446203e-06 -25.121353882326027 179.99999353601888 -46.44089708157397 142.26484433323003 0.0 0.0 3.1805546814635168e-15 3.4249572800082917 -13.54408485350879 -17.742069353026285 -10.808699605753675 37.9027552311435 -35.192319449101 119.12209747912966 -49.37982486215652 161.02725858289173 6.361109362927033e-15 4.770832022195276e-15 9.54166404439055e-15 -1.5972737562234114 -0.33141761179457857 34.495063658352564 8.799581211485956 21.813585944262794 19.46270364588078 -119.43961075679539 -26.889355343180195 -170.2597282825114 6.361109362927032e-15 -1.5902773407317578e-15 3.180554681463516e-15
0.7279999852180481 0.15700000524520874 0.5759999752044678 0.9469394270989492 -0.9468099577996465 5.075767747702566 -1.4864009173747006 -2.1765469933211508 -0.08322165293581005 -1.5123150037750224e-08 8.39859322572113e-08 4.997938191716279 95.20905128227233 -11.31000921875658 177.2801865748812 -5.3242607454697435e-06 -4.819840709391469e-07 22.32378312488506 3.226269764791217e-06 8.986230949583097 14.343451046004278 -7.951386703658792e-15 0.0 0.0 -93.72219766497959 12.123610896936915 -171.13257778247151 -3.522556327296371e-06 -5.474165229289259e-07 -24.541250634018315 179.99999848804666 -46.97719137856841 142.26484727109298 2.2069531490250793e-32 -7.951386703658794e-16 3.1805546814635176e-15 3.884056693604595 -13.72074297033861 -17.51550709086831 -10.722343929630158 38.18523907885629 -35.47251978068063 119.25403222202416 -49.29884459508122 161.08349632795304 6.361109362927033e-15 4.770832022195276e-15 9.54166404439055e-15 -1.1258829825516967 -0.3731368332940538 34.49373184084721 8.88717000766208 21.685547873425026 19.30729611297486 -118.99834018939242 -26.046268866321455 -170.3052078230886 -3.1805546814635168e-15 6.3611093629270335e-15 3.1805546814635168e-15
0.7279999852180481 0.15700000524520874 0.5759999752044678 1.4202472976906306 -0.4733565376621954 4.695569475916284 -1.996603639765837 -2.7893385729213014 -0.10633159996635408 4.937405329210346e-09 6.285456064981707e-08 5.225176357753977 95.01140731032204 -11.188091320249512 177.44787859203907 2.6837421138560924e-06 -1.8035562453671924e-06 22.01889739219249 4.2624357910630385e-07 14.228799114053018 13.076758897394297 2.3854160110976376e-15 0.0 0.0 -93.44499414948719 12.854237081180164 -171.58332030760843 5.717173927723795e-07 -4.79142290560119e-07 -24.336916268107025 -179.99999932856812 -45.87824898288185 140.75985142798356 6.361109362927035e-15 -7.951386703658794e-16 4.4139062980501586e-32 3.4864016608089448 -13.99143234312828 -18.294702991481916 -11.444167006568032 37.854432984191256 -34.84067001761243 118.85284409586824 -48.60134429485355 160.8599459322362 3.1805546814635168e-15 0.0 0.0 -1.492844737497953 -0.828814718641865 34.3290510809861 8.357861064264423 21.804835748509543 19.50870385640471 -119.18642971718994 -26.936946772003832 -170.15502485193736 -3.1805546814635168e-15 -1.5902773407317584e-15 6.3611093629270335e-15
0.7269999980926514 0.15700000524520874 0.5759999752044678 0.9469393229407257 -0.4734373233707278 4.6956931053549305 -1.3408383752768949 -2.671985875364822 -0.07503017291968186 -2.3613080902021618e-08 -3.134275283446817e-07 5.032803596409527 94.94488414990074 -13.123280828767928 177.5895680561086 -9.279004042233645e-08 7.03968582223928e-07 22.066844365242893 -2.2743071508213355e-06 8.729240953431367 13.738325859696717 4.770832022195274e-15 0.0 0.0 -93.19895045845688 12.757302831312826 -172.18409910445249 4.191373294210725e-06 -1.6613944611457028e-06 -24.20289360839114 -179.99999821907883 -46.160196158614035 140.34034129378438 6.3611093629270335e-15 -7.951386703658792e-16 4.4139062980501586e-32 4.113476195500426 -14.073603566034809 -18.093425274134884 -11.474533878481301 37.88132296056585 -35.21798684529819 118.75966616729987 -48.45157076943275 161.01243764135194 4.4139062980501586e-32 1.5902773407317588e-15 -3.1805546814635176e-15 -1.0093349545002517 -0.7226090458063812 34.46843827367256 8.549329256621267 21.5544064520848 19.13501620440205 -119.02749872384788 -26.64531109185906 -170.08959722048908 -3.1805546814635168e-15 -1.5902773407317584e-15 3.1805546814635168e-15
0.7260000109672546 0.15700000524520874 0.5759999752044678 0.9469675389349504 -0.4734373638346603 4.695690671225693 -1.5130513082363364 -2.667560273366516 -0.08292563935563363 3.3108992195763654e-08 -1.0783879389753901e-07 4.8819433845201665 95.1071001976072 -13.50879176303336 177.78631391678948 -3.4331935391028604e-10 -1.3901847774154262e-06 22.080820611353953 2.000282685661551e-06 11.136856090785193 14.36831248463584 7.951386703658792e-15 -2.2069531490250793e-31 -3.1805546814635168e-15 -92.68977400177674 11.699158996242549 -172.46266946033396 5.209360105498468e-06 2.928560332656644e-09 -24.114960500173165 179.99999070757218 -48.28756720973425 140.35939857036763 -6.361109362927035e-15 -6.361109362927035e-15 -3.531125038440127e-31 4.256876250901847 -14.081667340912153 -18.12146087264847 -11.651649775380918 37.83386365262884 -35.1489377505931 118.4218618690461 -47.92249501351506 160.88522243260954 0.0 0.0 -3.1805546814635164e-15 -0.8680332826294013 -0.7341921807517937 34.35633784112944 8.507260716818106 21.577938756022633 19.11128772619678 -118.84883039973576 -26.26639305760589 -170.09590593907478 4.4139062980501586e-32 -1.5902773407317584e-15 3.1805546814635168e-15
